<svg xmlns="http://www.w3.org/2000/svg" xmlns:xlink="http://www.w3.org/1999/xlink" id="Layer_2_copy_3" width="500" height="500" x="0" y="0" enable-background="new 0 0 500 500" version="1.1" viewBox="0 0 500 500" xml:space="preserve"><g id="XMLID_1_"><g><polygon fill="#FEDF04" points="251.37 5.591 281.922 58.506 220.819 58.506"/></g><g><polygon fill="none" stroke="#000" stroke-miterlimit="10" stroke-width=".7" points="281.922 58.506 251.37 5.591 220.819 58.506"/></g></g><g id="XMLID_2_"><g><polygon fill="#FEDF04" points="251.371 491.667 220.82 438.752 281.923 438.752"/></g><g><polygon fill="none" stroke="#000" stroke-miterlimit="10" stroke-width=".7" points="220.82 438.752 251.371 491.667 281.923 438.752"/></g></g><g id="XMLID_4_"><g><polygon fill="#FEDF04" points="8.333 248.629 61.248 218.078 61.248 279.181"/></g><g><polygon fill="none" stroke="#000" stroke-miterlimit="10" stroke-width=".7" points="61.248 218.078 8.333 248.629 61.248 279.181"/></g></g><g id="XMLID_3_"><g><polygon fill="#FEDF04" points="494.409 248.628 441.494 279.18 441.494 218.077"/></g><g><polygon fill="none" stroke="#000" stroke-miterlimit="10" stroke-width=".7" points="441.494 279.18 494.409 248.628 441.494 218.077"/></g></g><g id="XMLID_8_"><g><polygon fill="#FEDF04" points="79.517 76.775 138.536 92.588 95.33 135.794"/></g><g><polygon fill="none" stroke="#000" stroke-miterlimit="10" stroke-width=".7" points="138.536 92.588 79.517 76.775 95.33 135.794"/></g></g><g id="XMLID_7_"><g><polygon fill="#FEDF04" points="423.225 420.481 364.205 404.668 407.411 361.462"/></g><g><polygon fill="none" stroke="#000" stroke-miterlimit="10" stroke-width=".7" points="364.205 404.668 423.225 420.481 407.411 361.462"/></g></g><g id="XMLID_6_"><g><polygon fill="#FEDF04" points="79.517 420.482 95.331 361.463 138.537 404.669"/></g><g><polygon fill="none" stroke="#000" stroke-miterlimit="10" stroke-width=".7" points="95.331 361.463 79.517 420.482 138.537 404.669"/></g></g><g id="XMLID_5_"><g><polygon fill="#FEDF04" points="423.224 76.774 407.41 135.794 364.204 92.588"/></g><g><polygon fill="none" stroke="#000" stroke-miterlimit="10" stroke-width=".7" points="407.41 135.794 423.224 76.774 364.204 92.588"/></g></g><g id="XMLID_11_"><g><circle cx="250" cy="250" r="162.406" fill="#FEDF04"/></g><g><circle cx="250" cy="250" r="162.406" fill="none" stroke="#000" stroke-miterlimit="10" stroke-width=".661"/></g></g></svg>